<svg width="49pt" height="49pt" viewBox="0 0 49 49" xmlns="http://www.w3.org/2000/svg">
                    <g id="fontsvg1664334405457" stroke-linecap="round" fill-rule="evenodd" fill="#000000">
                        <path
                            d="M 14.917 46.472 A 23.896 23.896 0 0 0 24.146 48.291 A 23.896 23.896 0 0 0 33.374 46.472 A 23.947 23.947 0 0 0 41.211 41.211 A 23.947 23.947 0 0 0 46.472 33.374 A 23.896 23.896 0 0 0 48.291 24.146 A 23.896 23.896 0 0 0 46.472 14.917 A 23.947 23.947 0 0 0 41.211 7.08 A 23.947 23.947 0 0 0 33.374 1.819 A 23.896 23.896 0 0 0 24.146 0 A 23.896 23.896 0 0 0 14.917 1.819 A 23.947 23.947 0 0 0 7.08 7.08 A 23.947 23.947 0 0 0 1.819 14.917 A 23.896 23.896 0 0 0 0 24.146 A 23.896 23.896 0 0 0 1.819 33.374 A 23.947 23.947 0 0 0 7.08 41.211 A 23.947 23.947 0 0 0 14.917 46.472 Z M 34.277 19.824 L 34.277 18.897 A 2.251 2.251 0 0 0 34.514 18.741 Q 34.909 18.449 35.572 17.796 A 26.932 26.932 0 0 0 35.718 17.652 Q 36.475 16.821 36.89 16.211 L 36.865 16.211 A 20.868 20.868 0 0 1 35.932 16.574 Q 35.082 16.879 34.49 16.985 A 3.196 3.196 0 0 1 33.936 17.041 L 33.936 16.992 A 1.995 1.995 0 0 0 34.11 16.884 Q 34.404 16.683 34.92 16.237 A 24.868 24.868 0 0 0 35.034 16.138 A 7.574 7.574 0 0 0 35.62 15.313 Q 35.983 14.716 36.157 14.136 A 11.109 11.109 0 0 1 34.058 15.112 Q 33.135 15.376 32.904 15.402 A 0.389 0.389 0 0 1 32.861 15.405 Q 31.128 13.794 29.053 13.794 A 5.191 5.191 0 0 0 25.397 15.278 A 6.971 6.971 0 0 0 25.391 15.283 A 5.141 5.141 0 0 0 24.108 17.215 A 5.134 5.134 0 0 0 23.804 18.994 Q 23.804 19.531 23.95 20.191 A 4.848 4.848 0 0 1 23.605 20.176 Q 22.945 20.128 21.655 19.922 A 19.651 19.651 0 0 1 18.743 18.938 A 15.633 15.633 0 0 1 16.651 17.847 A 11.959 11.959 0 0 1 15.262 16.825 Q 14.586 16.253 13.892 15.526 A 23.668 23.668 0 0 1 13.159 14.722 A 6.326 6.326 0 0 0 12.674 15.899 A 4.749 4.749 0 0 0 12.476 17.236 A 5.466 5.466 0 0 0 13.696 20.728 Q 14.189 21.299 14.555 21.553 A 1.653 1.653 0 0 0 14.722 21.655 L 14.722 21.704 A 4.069 4.069 0 0 1 13.695 21.565 Q 13.088 21.407 12.427 21.069 A 5.242 5.242 0 0 0 13.989 24.853 A 6.602 6.602 0 0 0 14.014 24.878 Q 15.015 25.757 15.82 26.026 A 17.345 17.345 0 0 0 16.032 26.092 Q 16.454 26.221 16.553 26.221 Q 16.553 26.27 15.967 26.392 L 15.357 26.392 L 15.161 26.392 A 5.28 5.28 0 0 1 14.844 26.381 Q 14.56 26.364 14.209 26.319 Q 14.868 28.15 16.406 29.126 A 5.834 5.834 0 0 0 17.702 29.732 A 4.637 4.637 0 0 0 19.116 29.956 A 14.365 14.365 0 0 1 18.435 30.444 Q 18.117 30.656 17.822 30.825 A 8.108 8.108 0 0 1 17.627 30.933 A 11.367 11.367 0 0 1 15.059 31.923 A 9.447 9.447 0 0 1 12.793 32.202 Q 11.939 32.202 11.402 32.129 A 14.604 14.604 0 0 0 19.434 34.473 Q 24.854 34.473 29.053 30.957 A 15.48 15.48 0 0 0 33.399 24.561 A 16.578 16.578 0 0 0 34.058 22.119 A 12.572 12.572 0 0 0 34.277 19.824 Z"
                            vector-effect="non-scaling-stroke" />
                    </g>
                </svg>