<?xml version="1.0" encoding="UTF-8"?>
<!DOCTYPE svg PUBLIC "-//W3C//DTD SVG 1.1//EN" "http://www.w3.org/Graphics/SVG/1.1/DTD/svg11.dtd">
<svg xmlns="http://www.w3.org/2000/svg" version="1.1" width="1024px" height="1024px" style="shape-rendering:geometricPrecision; text-rendering:geometricPrecision; image-rendering:optimizeQuality; fill-rule:evenodd; clip-rule:evenodd" xmlns:xlink="http://www.w3.org/1999/xlink">
<g><path style="opacity:0.987" fill="#000000" d="M 93.5,177.5 C 130.835,177.333 168.168,177.5 205.5,178C 215.663,180.164 222.83,185.998 227,195.5C 238.402,225.872 249.902,256.206 261.5,286.5C 463.499,287.333 665.499,287.833 867.5,288C 883.028,292.216 891.028,302.382 891.5,318.5C 891.61,323.336 890.777,328.002 889,332.5C 860.974,423.938 832.641,515.271 804,606.5C 798.782,614.195 791.615,619.028 782.5,621C 650.833,621.333 519.167,621.667 387.5,622C 393.33,635.991 398.663,650.158 403.5,664.5C 517.167,664.333 630.834,664.5 744.5,665C 781.554,671.396 806.388,692.23 819,727.5C 830.186,773.594 816.019,809.427 776.5,835C 736.855,853.474 701.021,847.974 669,818.5C 645.784,791.929 638.951,761.596 648.5,727.5C 588.169,726.333 527.836,726.167 467.5,727C 479.343,773.28 465.343,809.28 425.5,835C 387.952,852.722 353.285,848.388 321.5,822C 294.757,794.19 286.923,761.69 298,724.5C 306.408,702.425 320.908,685.591 341.5,674C 286.871,529.903 232.371,385.737 178,241.5C 149.723,239.679 121.223,238.845 92.5,239C 74.9202,232.69 67.4202,220.19 70,201.5C 73.349,188.985 81.1824,180.985 93.5,177.5 Z M 285.5,349.5 C 341.833,349.5 398.167,349.5 454.5,349.5C 456.36,380.88 458.694,412.214 461.5,443.5C 414.499,443.667 367.499,443.5 320.5,443C 308.69,411.882 297.024,380.715 285.5,349.5 Z M 485.5,349.5 C 533.833,349.5 582.167,349.5 630.5,349.5C 627.759,380.8 625.426,412.133 623.5,443.5C 579.833,443.5 536.167,443.5 492.5,443.5C 490.37,412.15 488.037,380.816 485.5,349.5 Z M 661.5,349.5 C 713.838,349.167 766.171,349.5 818.5,350.5C 808.755,381.399 799.422,412.399 790.5,443.5C 745.167,443.5 699.833,443.5 654.5,443.5C 657.037,412.183 659.371,380.849 661.5,349.5 Z M 332.5,476.5 C 375.997,475.501 419.663,475.168 463.5,475.5C 465.631,502.866 467.964,530.199 470.5,557.5C 434.84,558.5 399.173,558.833 363.5,558.5C 353.687,530.89 343.353,503.557 332.5,476.5 Z M 495.5,475.5 C 537.167,475.5 578.833,475.5 620.5,475.5C 618.296,503.151 616.296,530.818 614.5,558.5C 576.833,558.5 539.167,558.5 501.5,558.5C 499.453,530.837 497.453,503.17 495.5,475.5 Z M 652.5,475.5 C 694.833,475.5 737.167,475.5 779.5,475.5C 771.709,503.164 763.376,530.664 754.5,558C 718.168,558.5 681.835,558.667 645.5,558.5C 647.582,530.764 649.915,503.098 652.5,475.5 Z M 381.5,726.5 C 403.153,729.643 412.319,741.976 409,763.5C 399.698,782.739 385.532,787.572 366.5,778C 350.5,762.667 350.5,747.333 366.5,732C 371.299,729.238 376.299,727.404 381.5,726.5 Z M 732.5,726.5 C 754.196,729.679 763.363,742.012 760,763.5C 750.824,782.892 736.657,787.726 717.5,778C 704.357,765.968 702.524,752.468 712,737.5C 717.587,731.293 724.421,727.626 732.5,726.5 Z"/></g>
</svg>
