<svg width="49pt" height="49pt" viewBox="0 0 49 49" xmlns="http://www.w3.org/2000/svg">
                    <g id="fontsvg1664334629543" stroke-linecap="round" fill-rule="evenodd" fill="#000000">
                        <path
                            d="M 14.917 46.472 A 23.896 23.896 0 0 0 24.146 48.291 A 23.896 23.896 0 0 0 33.374 46.472 A 23.947 23.947 0 0 0 41.211 41.211 A 23.947 23.947 0 0 0 46.472 33.374 A 23.896 23.896 0 0 0 48.291 24.146 A 23.896 23.896 0 0 0 46.472 14.917 A 23.947 23.947 0 0 0 41.211 7.08 A 23.947 23.947 0 0 0 33.374 1.819 A 23.896 23.896 0 0 0 24.146 0 A 23.896 23.896 0 0 0 14.917 1.819 A 23.947 23.947 0 0 0 7.08 7.08 A 23.947 23.947 0 0 0 1.819 14.917 A 23.896 23.896 0 0 0 0 24.146 A 23.896 23.896 0 0 0 1.819 33.374 A 23.947 23.947 0 0 0 7.08 41.211 A 23.947 23.947 0 0 0 14.917 46.472 Z M 25.488 22.095 L 25.415 22.095 Q 25.415 22.037 25.461 22.025 A 0.108 0.108 0 0 1 25.488 22.022 A 5.659 5.659 0 0 1 25.754 21.651 Q 25.997 21.34 26.31 21.016 A 11.285 11.285 0 0 1 26.978 20.386 A 2.979 2.979 0 0 1 27.931 19.839 Q 28.368 19.68 28.909 19.603 A 7.821 7.821 0 0 1 30.005 19.531 A 7.253 7.253 0 0 1 30.427 19.543 A 5.422 5.422 0 0 1 34.107 21.167 A 4.833 4.833 0 0 1 35.116 22.723 Q 35.433 23.486 35.583 24.443 A 12.145 12.145 0 0 1 35.718 26.319 L 35.718 34.912 L 30.689 34.912 L 30.689 26.904 A 7.524 7.524 0 0 0 30.676 26.464 Q 30.644 25.918 30.53 25.451 A 3.83 3.83 0 0 0 30.127 24.426 A 1.835 1.835 0 0 0 28.951 23.547 A 2.917 2.917 0 0 0 28.223 23.462 A 3.931 3.931 0 0 0 28.144 23.463 Q 27.126 23.483 26.526 24.036 A 4.331 4.331 0 0 0 26.185 24.386 A 3.478 3.478 0 0 0 25.61 25.293 Q 25.488 25.537 25.488 25.867 L 25.488 26.514 L 25.488 34.912 L 20.508 34.912 L 20.508 27.93 L 20.508 19.873 L 25.488 19.873 L 25.488 22.022 L 25.488 22.095 Z M 17.7 34.912 L 17.7 19.873 L 12.671 19.873 L 12.671 34.912 L 17.7 34.912 Z M 15.21 17.774 A 3.467 3.467 0 0 0 16.174 17.646 A 2.71 2.71 0 0 0 17.261 17.041 A 2.436 2.436 0 0 0 17.89 16.167 A 2.417 2.417 0 0 0 18.067 15.235 Q 17.969 14.087 17.212 13.379 A 2.598 2.598 0 0 0 15.708 12.696 A 3.526 3.526 0 0 0 15.283 12.671 A 3.852 3.852 0 0 0 14.383 12.771 A 2.695 2.695 0 0 0 13.196 13.379 A 2.332 2.332 0 0 0 12.407 15.058 A 3.176 3.176 0 0 0 12.402 15.235 A 2.55 2.55 0 0 0 12.613 16.279 A 2.467 2.467 0 0 0 13.147 17.041 Q 13.874 17.756 15.149 17.773 A 4.673 4.673 0 0 0 15.21 17.774 Z"
                            vector-effect="non-scaling-stroke" />
                    </g>
                </svg>