<svg width="49pt" height="49pt" viewBox="0 0 49 49"
                    xmlns="http://www.w3.org/2000/svg">
                    <g id="fontsvg1664334887373" stroke-linecap="round" fill-rule="evenodd" fill="#000000">
                        <path
                            d="M 14.917 46.472 A 23.896 23.896 0 0 0 24.146 48.291 A 23.896 23.896 0 0 0 33.374 46.472 A 23.947 23.947 0 0 0 41.211 41.211 A 23.947 23.947 0 0 0 46.472 33.374 A 23.896 23.896 0 0 0 48.291 24.146 A 23.896 23.896 0 0 0 46.472 14.917 A 23.947 23.947 0 0 0 41.211 7.08 A 23.947 23.947 0 0 0 33.374 1.819 A 23.896 23.896 0 0 0 24.146 0 A 23.896 23.896 0 0 0 14.917 1.819 A 23.947 23.947 0 0 0 7.08 7.08 A 23.947 23.947 0 0 0 1.819 14.917 A 23.896 23.896 0 0 0 0 24.146 A 23.896 23.896 0 0 0 1.819 33.374 A 23.947 23.947 0 0 0 7.08 41.211 A 23.947 23.947 0 0 0 14.917 46.472 Z M 24.146 11.89 L 21.643 11.89 A 50.543 50.543 0 0 0 21.241 11.891 Q 20.667 11.896 20.264 11.914 A 192.149 192.149 0 0 1 19.708 11.939 A 232.639 232.639 0 0 1 19.116 11.963 A 14.222 14.222 0 0 0 18.02 12.06 Q 16.938 12.201 16.212 12.504 A 4.251 4.251 0 0 0 16.162 12.525 A 5.83 5.83 0 0 0 14.419 13.566 A 6.998 6.998 0 0 0 14.014 13.941 A 6.39 6.39 0 0 0 13.003 15.238 A 5.566 5.566 0 0 0 12.598 16.089 A 5.431 5.431 0 0 0 12.322 16.923 Q 12.102 17.803 12.037 19.024 A 17.376 17.376 0 0 0 12.036 19.043 A 76.309 76.309 0 0 0 12.015 19.632 A 60.816 60.816 0 0 0 12 20.178 A 90.125 90.125 0 0 0 11.994 20.461 Q 11.986 20.853 11.978 21.381 A 291.7 291.7 0 0 0 11.975 21.558 Q 11.966 22.212 11.964 23.324 A 368.36 368.36 0 0 0 11.963 24.048 A 373.942 373.942 0 0 0 11.964 24.828 Q 11.965 25.58 11.97 26.118 A 84.14 84.14 0 0 0 11.975 26.563 A 267.334 267.334 0 0 0 11.981 26.969 Q 11.989 27.467 11.997 27.828 A 79.322 79.322 0 0 0 12 27.942 A 60.816 60.816 0 0 0 12.015 28.488 A 76.309 76.309 0 0 0 12.036 29.077 A 14.222 14.222 0 0 0 12.133 30.174 Q 12.274 31.256 12.577 31.982 A 4.251 4.251 0 0 0 12.598 32.031 A 5.83 5.83 0 0 0 13.639 33.775 A 6.998 6.998 0 0 0 14.014 34.18 A 6.39 6.39 0 0 0 15.311 35.191 A 5.566 5.566 0 0 0 16.162 35.596 A 5.431 5.431 0 0 0 16.996 35.871 Q 17.876 36.092 19.097 36.156 A 17.376 17.376 0 0 0 19.116 36.157 A 196.327 196.327 0 0 1 19.705 36.182 A 156.684 156.684 0 0 1 20.252 36.206 A 17.409 17.409 0 0 0 20.535 36.217 Q 20.926 36.229 21.454 36.23 A 56.228 56.228 0 0 0 21.631 36.231 L 24.121 36.231 L 26.624 36.231 A 50.543 50.543 0 0 0 27.026 36.229 Q 27.6 36.225 28.003 36.206 A 192.149 192.149 0 0 1 28.558 36.182 A 232.639 232.639 0 0 1 29.151 36.157 A 14.222 14.222 0 0 0 30.247 36.061 Q 31.329 35.92 32.055 35.617 A 4.251 4.251 0 0 0 32.105 35.596 A 5.83 5.83 0 0 0 33.848 34.554 A 6.998 6.998 0 0 0 34.253 34.18 A 6.39 6.39 0 0 0 35.264 32.883 A 5.566 5.566 0 0 0 35.669 32.031 A 5.431 5.431 0 0 0 35.945 31.198 Q 36.165 30.318 36.23 29.097 A 17.376 17.376 0 0 0 36.231 29.077 A 76.309 76.309 0 0 0 36.252 28.488 A 60.816 60.816 0 0 0 36.267 27.942 A 90.125 90.125 0 0 0 36.273 27.659 Q 36.281 27.268 36.289 26.739 A 291.7 291.7 0 0 0 36.292 26.563 Q 36.304 25.708 36.304 24.048 A 364.152 364.152 0 0 0 36.303 23.279 Q 36.302 22.536 36.297 22.001 A 84.637 84.637 0 0 0 36.292 21.558 A 267.334 267.334 0 0 0 36.286 21.151 Q 36.278 20.653 36.27 20.293 A 79.322 79.322 0 0 0 36.267 20.178 A 60.816 60.816 0 0 0 36.252 19.632 A 76.309 76.309 0 0 0 36.231 19.043 A 14.222 14.222 0 0 0 36.134 17.947 Q 35.993 16.865 35.69 16.138 A 4.251 4.251 0 0 0 35.669 16.089 A 5.83 5.83 0 0 0 34.628 14.345 A 6.998 6.998 0 0 0 34.253 13.941 A 6.39 6.39 0 0 0 32.956 12.93 A 5.566 5.566 0 0 0 32.105 12.525 Q 31.006 12.061 29.151 11.963 A 232.639 232.639 0 0 1 28.558 11.939 A 192.149 192.149 0 0 1 28.003 11.914 Q 27.523 11.892 26.798 11.89 A 54.84 54.84 0 0 0 26.624 11.89 L 24.146 11.89 Z M 23.047 14.087 L 23.731 14.087 L 24.146 14.087 L 26.587 14.087 A 48.7 48.7 0 0 1 26.982 14.089 Q 27.466 14.093 27.818 14.107 A 14.683 14.683 0 0 1 27.93 14.111 A 130.317 130.317 0 0 0 28.467 14.136 A 169.117 169.117 0 0 0 29.053 14.16 A 18.568 18.568 0 0 1 29.746 14.222 Q 30.785 14.336 31.242 14.536 A 1.365 1.365 0 0 1 31.323 14.575 A 3.615 3.615 0 0 1 32.715 15.479 A 3.615 3.615 0 0 1 33.618 16.87 A 1.971 1.971 0 0 1 33.752 17.216 Q 33.923 17.791 34.015 18.898 A 21.632 21.632 0 0 1 34.033 19.141 A 169.117 169.117 0 0 0 34.058 19.727 A 130.317 130.317 0 0 0 34.082 20.264 Q 34.104 20.722 34.106 21.435 A 53.09 53.09 0 0 1 34.107 21.607 L 34.107 24.048 L 34.107 26.514 A 48.7 48.7 0 0 1 34.105 26.909 Q 34.101 27.393 34.087 27.745 A 14.683 14.683 0 0 1 34.082 27.857 A 130.317 130.317 0 0 0 34.058 28.394 A 169.117 169.117 0 0 0 34.033 28.98 Q 33.911 30.664 33.618 31.226 Q 33.325 32.031 32.715 32.642 A 3.615 3.615 0 0 1 31.323 33.545 A 1.971 1.971 0 0 1 30.978 33.679 Q 30.403 33.85 29.296 33.941 A 21.632 21.632 0 0 1 29.053 33.96 A 79.541 79.541 0 0 1 28.467 33.981 A 61.204 61.204 0 0 1 27.93 33.997 A 86.951 86.951 0 0 1 27.654 34.003 Q 27.272 34.011 26.759 34.019 A 277.832 277.832 0 0 1 26.587 34.021 A 80.991 80.991 0 0 1 26.123 34.026 Q 25.354 34.033 24.146 34.033 A 361.963 361.963 0 0 1 23.378 34.033 Q 22.639 34.031 22.113 34.026 A 78.963 78.963 0 0 1 21.68 34.021 A 254.837 254.837 0 0 1 21.285 34.015 Q 20.801 34.007 20.449 33.999 A 76.654 76.654 0 0 1 20.337 33.997 A 61.204 61.204 0 0 1 19.8 33.981 A 79.541 79.541 0 0 1 19.214 33.96 Q 17.529 33.838 16.968 33.545 A 4.297 4.297 0 0 1 15.552 32.642 Q 14.942 32.031 14.649 31.226 Q 14.377 30.705 14.252 29.218 A 21.092 21.092 0 0 1 14.234 28.98 A 169.117 169.117 0 0 0 14.209 28.394 A 130.317 130.317 0 0 0 14.185 27.857 Q 14.163 27.398 14.161 26.685 A 53.09 53.09 0 0 1 14.16 26.514 L 14.16 24.048 L 14.16 21.607 A 48.7 48.7 0 0 1 14.162 21.211 Q 14.166 20.728 14.18 20.375 A 14.683 14.683 0 0 1 14.185 20.264 A 130.317 130.317 0 0 0 14.209 19.727 A 169.117 169.117 0 0 0 14.234 19.141 A 18.568 18.568 0 0 1 14.295 18.448 Q 14.409 17.408 14.609 16.952 A 1.365 1.365 0 0 1 14.649 16.87 A 3.615 3.615 0 0 1 15.552 15.479 Q 16.162 14.868 16.968 14.575 Q 17.489 14.304 18.975 14.179 A 21.092 21.092 0 0 1 19.214 14.16 A 17.855 17.855 0 0 1 19.73 14.121 A 13.695 13.695 0 0 1 20.203 14.099 A 29.612 29.612 0 0 1 20.567 14.092 Q 20.73 14.089 20.91 14.088 A 57.459 57.459 0 0 1 21.289 14.087 L 23.047 14.087 Z M 24.146 17.798 A 6.014 6.014 0 0 0 19.784 19.572 A 7.281 7.281 0 0 0 19.727 19.629 A 6.014 6.014 0 0 0 17.896 23.967 A 7.269 7.269 0 0 0 17.896 24.048 A 6.127 6.127 0 0 0 18.576 26.937 A 6.283 6.283 0 0 0 19.727 28.479 A 6.034 6.034 0 0 0 24.065 30.298 A 7.315 7.315 0 0 0 24.146 30.298 A 6.035 6.035 0 0 0 28.507 28.536 A 7.256 7.256 0 0 0 28.565 28.479 A 6.001 6.001 0 0 0 30.395 24.129 A 7.405 7.405 0 0 0 30.396 24.048 A 6.014 6.014 0 0 0 28.621 19.686 A 7.281 7.281 0 0 0 28.565 19.629 A 6.014 6.014 0 0 0 24.226 17.798 A 7.269 7.269 0 0 0 24.146 17.798 Z M 26.965 21.154 A 3.892 3.892 0 0 0 24.146 19.995 A 4.713 4.713 0 0 0 24.093 19.996 A 3.923 3.923 0 0 0 21.265 21.192 A 4.843 4.843 0 0 0 21.228 21.229 A 3.892 3.892 0 0 0 20.069 24.048 A 4.713 4.713 0 0 0 20.069 24.101 A 3.923 3.923 0 0 0 21.265 26.929 A 4.774 4.774 0 0 0 21.302 26.966 A 3.922 3.922 0 0 0 24.146 28.125 A 4.018 4.018 0 0 0 25.464 27.912 A 4.015 4.015 0 0 0 27.002 26.929 A 4.774 4.774 0 0 0 27.039 26.891 A 3.922 3.922 0 0 0 28.198 24.048 A 4.018 4.018 0 0 0 27.985 22.73 A 4.015 4.015 0 0 0 27.002 21.192 A 4.843 4.843 0 0 0 26.965 21.154 Z M 30.64 16.113 Q 30.029 16.113 29.602 16.541 A 1.453 1.453 0 0 0 29.269 17.039 A 1.399 1.399 0 0 0 29.175 17.554 Q 29.175 18.164 29.602 18.591 A 1.411 1.411 0 0 0 30.621 19.019 A 1.73 1.73 0 0 0 30.64 19.019 A 1.382 1.382 0 0 0 31.64 18.605 A 1.748 1.748 0 0 0 31.653 18.591 A 1.411 1.411 0 0 0 32.08 17.573 A 1.73 1.73 0 0 0 32.08 17.554 Q 32.08 16.968 31.665 16.541 A 1.368 1.368 0 0 0 30.678 16.114 A 1.718 1.718 0 0 0 30.64 16.113 Z"
                            vector-effect="non-scaling-stroke" />
                    </g>
                </svg>