<?xml version="1.0" encoding="UTF-8" standalone="no"?>
<!-- Created with Inkscape (http://www.inkscape.org/) -->

<svg
   version="1.1"
   id="svg2"
   xml:space="preserve"
   width="1600"
   height="1600"
   viewBox="0 0 1600 1600"
   sodipodi:docname="vector60-1072-01.eps"
   xmlns:inkscape="http://www.inkscape.org/namespaces/inkscape"
   xmlns:sodipodi="http://sodipodi.sourceforge.net/DTD/sodipodi-0.dtd"
   xmlns="http://www.w3.org/2000/svg"
   xmlns:svg="http://www.w3.org/2000/svg"><defs
     id="defs6" /><sodipodi:namedview
     id="namedview4"
     pagecolor="#ffffff"
     bordercolor="#666666"
     borderopacity="1.0"
     inkscape:pageshadow="2"
     inkscape:pageopacity="0.0"
     inkscape:pagecheckerboard="0" /><g
     id="g8"
     inkscape:groupmode="layer"
     inkscape:label="ink_ext_XXXXXX"
     transform="matrix(1.3333333,0,0,-1.3333333,0,1600)"><g
       id="g10"
       transform="scale(0.1)"><path
         d="m 5945.97,5102.25 -940.6,819.89 -2204.26,-2135.55 c 5.86,-0.48 11.76,-0.83 17.75,-0.83 h 6254.26 c 25.57,0 49.96,4.58 72.5,12.6 L 6972.29,5996.84 5945.97,5102.25"
         style="fill:#11100e;fill-opacity:1;fill-rule:nonzero;stroke:none"
         id="path12" /><path
         d="m 2651.57,7973.85 c -21.93,-29.75 -34.77,-65.62 -34.77,-104.21 V 3971.8 c 0,-37.16 12.02,-71.74 32.49,-100.82 L 4879.6,6031.76 2651.57,7973.85"
         style="fill:#11100e;fill-opacity:1;fill-rule:nonzero;stroke:none"
         id="path14" /><path
         d="M 6452.65,7627.72 6333.13,7306.81 H 6565.7 Z"
         style="fill:#11100e;fill-opacity:1;fill-rule:nonzero;stroke:none"
         id="path16" /><path
         d="m 4816.58,7303.57 h 323.01 v -87.52 h -323.01 z m -61.35,341.97 h -355.32 v -233.38 h 316.55 v -87.52 h -316.55 v -275.52 h 355.32 v -87.53 h -457.07 v 771.48 h 457.07 z m 507.11,87.53 h 106.6 l 255.18,-641.82 255.19,641.82 h 106.59 l 54.91,-771.48 h -98.52 l -41.98,598.05 -242.27,-598.05 h -67.83 l -242.27,598.05 -41.99,-598.05 h -98.52 z m 1146.7,11.34 h 87.22 l 321.4,-782.82 h -111.44 l -101.75,257.7 h -308.48 l -100.13,-257.7 h -109.83 z m 487.74,-11.34 h 101.75 v -771.48 h -101.75 z m 263.25,0 h 101.75 v -683.95 h 376.31 v -87.53 h -478.06 z m -2161.02,-1585.62 63.13,-55.22 883.83,-770.4 3135.91,2733.43 c -2.93,0.12 -5.81,0.41 -8.76,0.41 H 2818.86 c -2.96,0 -5.85,-0.29 -8.78,-0.41 l 2188.83,-1907.91 0.1,0.1"
         style="fill:#11100e;fill-opacity:1;fill-rule:nonzero;stroke:none"
         id="path18" /><path
         d="m 7098.09,6106.49 2167.1,-2192.18 c 6.41,18.12 9.99,37.42 9.99,57.49 v 3897.84 c 0,38.59 -12.85,74.46 -34.78,104.21 L 7098.09,6106.49"
         style="fill:#11100e;fill-opacity:1;fill-rule:nonzero;stroke:none"
         id="path20" /><path
         d="M 9073.12,3520 H 2818.86 c -270.59,0 -490.72,202.67 -490.72,451.8 v 3897.84 c 0,249.12 220.13,451.8 490.72,451.8 h 6254.26 c 270.58,0 490.71,-202.68 490.71,-451.8 V 3971.8 c 0,-249.13 -220.13,-451.8 -490.71,-451.8 z M 5935,10650 c -2620.59,0 -4745,-2124.41 -4745,-4745 0,-2620.59 2124.41,-4745 4745,-4745 2620.59,0 4745,2124.41 4745,4745 0,2620.59 -2124.41,4745 -4745,4745"
         style="fill:#11100e;fill-opacity:1;fill-rule:nonzero;stroke:none"
         id="path22" /></g></g></svg>
