<svg width="49pt" height="49pt" viewBox="0 0 49 49" xmlns="http://www.w3.org/2000/svg">
                    <g id="fontsvg1664334544386" stroke-linecap="round" fill-rule="evenodd" fill="#000000">
                        <path
                            d="M 14.917 46.472 A 23.896 23.896 0 0 0 24.146 48.291 A 23.896 23.896 0 0 0 33.374 46.472 A 23.947 23.947 0 0 0 41.211 41.211 A 23.947 23.947 0 0 0 46.472 33.374 A 23.896 23.896 0 0 0 48.291 24.146 A 23.896 23.896 0 0 0 46.472 14.917 A 23.947 23.947 0 0 0 41.211 7.08 A 23.947 23.947 0 0 0 33.374 1.819 A 23.896 23.896 0 0 0 24.146 0 A 23.896 23.896 0 0 0 14.917 1.819 A 23.947 23.947 0 0 0 7.08 7.08 A 23.947 23.947 0 0 0 1.819 14.917 A 23.896 23.896 0 0 0 0 24.146 A 23.896 23.896 0 0 0 1.819 33.374 A 23.947 23.947 0 0 0 7.08 41.211 A 23.947 23.947 0 0 0 14.917 46.472 Z M 21.411 36.89 L 26.099 36.89 L 26.099 25.244 L 30.005 25.244 L 30.591 20.752 L 26.099 20.752 L 26.099 18.189 A 15.174 15.174 0 0 1 26.103 17.814 Q 26.117 17.237 26.179 16.975 A 0.715 0.715 0 0 1 26.221 16.846 A 0.155 0.155 0 0 1 26.229 16.805 Q 26.257 16.707 26.394 16.448 A 9.261 9.261 0 0 1 26.416 16.406 A 1.219 1.219 0 0 1 26.941 15.915 Q 27.406 15.672 28.194 15.617 A 7.054 7.054 0 0 1 28.687 15.601 L 30.762 15.601 L 30.762 11.572 A 27.854 27.854 0 0 0 28.42 11.396 A 32.658 32.658 0 0 0 27.295 11.377 A 7.571 7.571 0 0 0 25.374 11.605 A 4.87 4.87 0 0 0 22.266 13.965 Q 21.411 15.405 21.411 17.285 L 21.411 20.752 L 17.529 20.752 L 17.529 25.244 L 21.411 25.244 L 21.411 36.89 Z"
                            vector-effect="non-scaling-stroke" />
                    </g>
                </svg>